<?xml version="1.0" encoding="utf-8"?>
<svg viewBox="0 0 24 24" width="24px" height="24px" xmlns="http://www.w3.org/2000/svg" xmlns:xlink="http://www.w3.org/1999/xlink" xmlns:bx="https://boxy-svg.com"><defs><linearGradient id="color-0" bx:pinned="true"><stop style="stop-color: rgb(251, 94, 9);" offset="0"/><stop style="stop-color: rgb(245, 203, 92);" offset="1"/></linearGradient><linearGradient id="color-0-0" gradientUnits="userSpaceOnUse" x1="12" y1="0" x2="12" y2="22.861" gradientTransform="matrix(0.75, 0, 0, 0.75, 3, 3.000242)" xlink:href="#color-0"/><bx:export><bx:file format="svg" path="icon-vector.svg"/></bx:export></defs><style>
    .root {
      fill: #140003;
    }

    @media (prefers-color-scheme: dark) {
      .root {
        fill: #FFF5F7;
      }
    }
  </style><circle cx="12" cy="12" r="9.6" style="opacity: 0.6; visibility: hidden;"><title>Safe area</title>
            </circle><path class="root" d="M 12 3 C 7.029 3 3 7.029 3 12 C 3.005 14.995 4.5 17.791 6.987 19.459 C 7.241 19.364 7.505 19.295 7.767 19.231 C 8.711 19.021 9.677 18.927 10.641 18.873 C 10.606 19.181 10.563 19.488 10.493 19.792 C 10.451 19.982 10.638 20.174 10.831 20.142 C 10.964 20.127 11.069 20.023 11.086 19.89 C 11.227 19.253 11.287 18.602 11.302 17.952 C 11.32 16.79 11.21 15.629 10.975 14.49 C 10.803 13.631 10.546 12.791 10.208 11.983 C 9.851 11.162 9.389 10.358 8.705 9.765 C 8.455 10.584 8.402 11.449 8.548 12.293 C 8.703 13.221 9.158 14.113 9.887 14.72 C 9.345 14.575 8.813 14.375 8.339 14.072 C 7.745 13.699 7.243 13.15 7.009 12.482 C 6.799 11.877 6.799 11.219 7.01 10.616 C 6.555 11.115 6.191 11.708 6.017 12.365 C 5.827 13.034 5.852 13.748 6.008 14.42 C 5.821 14.186 5.656 13.936 5.514 13.672 C 5.17 13.036 4.992 12.296 5.096 11.574 C 5.208 10.706 5.711 9.915 6.401 9.387 C 5.396 9.663 4.564 10.368 4.128 11.315 C 4.112 10.78 4.188 10.235 4.406 9.743 C 4.711 9.04 5.28 8.487 5.99 8.201 C 6.616 7.947 7.304 7.89 7.963 8.038 C 8.02 7.48 8.293 6.958 8.684 6.561 C 9.254 5.986 10.025 5.656 10.835 5.642 L 10.961 5.642 C 11.819 5.666 12.626 6.089 13.21 6.704 C 12.627 6.532 12.009 6.512 11.416 6.647 C 10.88 6.77 10.366 7.055 10.053 7.517 C 10.611 7.378 11.2 7.454 11.705 7.729 C 12.254 8.021 12.665 8.528 12.904 9.097 C 13.223 9.857 13.269 10.705 13.178 11.517 C 12.81 10.727 12.282 9.968 11.507 9.533 C 10.873 9.17 10.097 9.089 9.392 9.271 C 10.061 9.992 10.568 10.847 10.977 11.737 C 11.51 12.901 11.881 14.133 12.145 15.384 C 12.45 16.847 12.604 18.342 12.608 19.837 C 12.608 19.987 12.716 20.115 12.863 20.141 C 13.048 20.167 13.214 20.025 13.216 19.838 C 13.291 18.086 13.595 16.337 14.173 14.678 C 14.5 13.753 14.906 12.848 15.45 12.029 C 15.655 11.722 15.883 11.429 16.142 11.164 C 15.801 11.036 15.424 11.117 15.097 11.246 C 14.429 11.516 13.922 12.088 13.62 12.731 C 13.563 12.124 13.61 11.483 13.893 10.932 C 14.108 10.506 14.483 10.151 14.945 10.011 C 15.227 9.924 15.528 9.916 15.815 9.989 C 15.59 9.65 15.209 9.446 14.819 9.363 C 14.43 9.281 14.027 9.294 13.644 9.401 C 13.995 9.05 14.433 8.774 14.923 8.666 C 15.509 8.528 16.126 8.633 16.632 8.959 C 17.106 9.265 17.433 9.752 17.539 10.307 C 18.397 10.136 19.303 10.655 19.652 11.444 C 19.83 11.823 19.89 12.249 19.873 12.665 C 19.579 12.008 19.01 11.513 18.318 11.315 C 18.792 11.688 19.133 12.242 19.203 12.845 C 19.291 13.554 18.993 14.255 18.547 14.792 C 18.684 14.248 18.684 13.661 18.487 13.131 C 18.351 12.772 18.149 12.443 17.892 12.158 C 18.057 12.659 18.02 13.228 17.765 13.692 C 17.56 14.07 17.231 14.369 16.861 14.582 C 16.553 14.759 16.215 14.878 15.872 14.964 C 16.274 14.633 16.561 14.183 16.694 13.68 C 16.866 13.022 16.809 12.32 16.618 11.674 C 15.513 13.159 14.822 14.933 14.548 16.759 C 14.438 17.484 14.387 18.217 14.395 18.951 C 15.08 19.019 15.763 19.113 16.431 19.277 C 16.629 19.33 16.825 19.388 17.016 19.459 C 19.502 17.79 20.995 14.994 21 12 C 21 7.029 16.971 3 12 3 Z" style="fill: url(&quot;#color-0-0&quot;);"><title>Logo</title></path></svg>