<svg xmlns="http://www.w3.org/2000/svg" xml:space="preserve" viewBox="0 0 24 24">
  <style>
    .root {
      fill: #140003;
    }

    @media (prefers-color-scheme: dark) {
      .root {
        fill: #FFF5F7;
      }
    }
  </style>

  <path class="root" d="M12 0A12 12 0 0 0 0 12a12 12 0 0 0 5.316 9.945c.338-.126.69-.218 1.04-.304 1.258-.28 2.546-.405 3.832-.477-.047.411-.104.82-.197 1.225-.057.254.193.51.45.467a.388.388 0 0 0 .34-.336c.188-.85.268-1.717.288-2.584a21.16 21.16 0 0 0-.436-4.616 17.486 17.486 0 0 0-1.023-3.343C9.134 10.882 8.518 9.81 7.607 9.02a7.283 7.283 0 0 0-.21 3.37c.207 1.238.814 2.427 1.786 3.237-.723-.194-1.432-.46-2.065-.865-.792-.497-1.461-1.229-1.773-2.12a3.778 3.778 0 0 1 .002-2.488c-.607.666-1.093 1.457-1.325 2.332-.253.892-.22 1.844-.011 2.74a6.537 6.537 0 0 1-.659-.997c-.459-.848-.696-1.835-.558-2.797.15-1.157.82-2.212 1.74-2.916a4.71 4.71 0 0 0-3.03 2.57c-.022-.713.08-1.439.37-2.096a3.89 3.89 0 0 1 2.113-2.056 4.422 4.422 0 0 1 2.63-.217c.076-.744.44-1.44.962-1.969a4.14 4.14 0 0 1 2.867-1.226h.169c1.143.033 2.22.597 2.998 1.417a4.733 4.733 0 0 0-2.392-.076c-.714.163-1.4.543-1.817 1.159a3.068 3.068 0 0 1 2.203.283c.732.39 1.28 1.066 1.598 1.824.426 1.014.487 2.144.365 3.227-.49-1.054-1.194-2.066-2.227-2.645-.846-.485-1.88-.592-2.82-.35.891.961 1.567 2.101 2.113 3.288.71 1.552 1.205 3.195 1.557 4.863.407 1.951.612 3.944.618 5.937a.41.41 0 0 0 .34.405.411.411 0 0 0 .47-.403c.1-2.337.505-4.669 1.276-6.88.436-1.234.977-2.44 1.703-3.532.273-.41.577-.8.922-1.154-.454-.171-.957-.063-1.393.11-.89.36-1.567 1.122-1.969 1.98-.076-.81-.013-1.664.364-2.399.286-.568.787-1.041 1.402-1.228a2.15 2.15 0 0 1 1.16-.03c-.3-.451-.808-.724-1.328-.834a3.298 3.298 0 0 0-1.566.051c.468-.468 1.052-.836 1.705-.98a2.955 2.955 0 0 1 2.279.39 2.755 2.755 0 0 1 1.209 1.797c1.144-.227 2.352.464 2.818 1.516.237.506.317 1.074.294 1.629a3.256 3.256 0 0 0-2.073-1.801c.632.498 1.086 1.236 1.18 2.041.117.945-.28 1.879-.875 2.596.183-.726.183-1.509-.08-2.215a4.093 4.093 0 0 0-.793-1.297c.22.668.17 1.426-.17 2.045-.273.504-.712.903-1.205 1.186-.41.236-.861.395-1.318.51a3.316 3.316 0 0 0 1.095-1.712c.23-.877.154-1.813-.1-2.675-1.474 1.98-2.395 4.346-2.761 6.78a18.241 18.241 0 0 0-.204 2.923c.913.09 1.824.216 2.715.435.264.07.525.148.78.242A12 12 0 0 0 24 12 12 12 0 0 0 12 0Z"/>
</svg>
