<svg xmlns="http://www.w3.org/2000/svg" xml:space="preserve" fill="none" viewBox="0 0 24 24">
  <path fill="#000" d="M8.162.301c-.58.005-1.105.374-1.19.86l-.67 3.823c-.09.523.357 1.002.99 1.058.631.055 1.231-.332 1.323-.854l.669-3.824C9.375.842 8.927.362 8.295.307A1.384 1.384 0 0 0 8.162.3Zm8.641.013c-.587-.001-1.12.37-1.205.86l-.67 3.823c-.09.522.358 1.002.99 1.058.632.055 1.232-.332 1.323-.854l.67-3.824C18 .855 17.552.375 16.92.32a1.384 1.384 0 0 0-.118-.005zm-5.328 2.273c-.628 0-1.141.513-1.141 1.141v1.187c0 .901-.468 1.7-1.176 2.145-.102.069-.216.126-.33.183a1.532 1.532 0 0 1-.343.137 1.81 1.81 0 0 1-.445.091 2.2 2.2 0 0 1-.548 0 1.81 1.81 0 0 1-.445-.091 2.142 2.142 0 0 1-.342-.137c-.114-.057-.228-.114-.331-.183a2.816 2.816 0 0 1-1.176-2.294v-.114c0-.878-.935-1.403-1.677-1.027-.011.012-.023.012-.034.023a.768.768 0 0 0-.126.08c-.034.034-.08.057-.114.091-.32.251-.605.537-.844.845a2.823 2.823 0 0 0-.32.433.158.158 0 0 0-.034.046c-.103.148-.194.32-.274.48-.023.022-.034.034-.034.056a2.773 2.773 0 0 0-.183.423c-.034.057-.046.102-.068.16-.069.17-.114.342-.16.513-.046.16-.08.33-.103.502a6.735 6.735 0 0 0-.068.867v9.997A5.557 5.557 0 0 0 6.716 23.7h10.568a5.557 5.557 0 0 0 5.557-5.558V8.144c0-1.814-.867-3.4-2.202-4.416-.753-.56-1.837-.023-1.837.924v.114c0 1.336-.96 2.568-2.294 2.705a2.572 2.572 0 0 1-2.842-2.556V3.728c0-.628-.513-1.141-1.141-1.141zm-.362 6.386h.097c.652.02 1.266.341 1.71.81a2.7 2.7 0 0 0-1.365-.044c-.407.093-.8.31-1.037.66.42-.106.878-.045 1.257.162.418.223.731.609.913 1.041.243.579.277 1.224.208 1.842-.28-.601-.682-1.178-1.27-1.509a2.174 2.174 0 0 0-1.61-.2c.508.548.894 1.199 1.206 1.876.405.886.688 1.823.888 2.775.232 1.113.35 2.25.353 3.388a.233.233 0 0 0 .193.23.233.233 0 0 0 .268-.229c.059-1.334.289-2.664.729-3.926.249-.704.557-1.392.971-2.015.156-.234.33-.457.527-.659-.26-.098-.546-.035-.795.063-.507.206-.894.64-1.123 1.13-.044-.462-.009-.95.206-1.369.163-.324.45-.594.8-.7.214-.07.446-.07.663-.018-.171-.258-.46-.413-.758-.475a1.885 1.885 0 0 0-.894.029c.267-.268.6-.478.973-.56.44-.105.921-.026 1.3.223.358.228.612.608.69 1.025.653-.13 1.342.265 1.608.865a2 2 0 0 1 .168.93 1.857 1.857 0 0 0-1.181-1.029c.36.284.618.706.672 1.165.067.54-.16 1.073-.499 1.482a2.14 2.14 0 0 0-.047-1.264c-.1-.274-.26-.523-.453-.74.125.38.098.814-.098 1.167a1.769 1.769 0 0 1-.687.677 2.92 2.92 0 0 1-.752.29 1.89 1.89 0 0 0 .625-.976c.132-.5.088-1.035-.059-1.527-.841 1.13-1.366 2.48-1.575 3.87-.085.551-.121 1.11-.116 1.667.52.051 1.04.124 1.549.249.255.067.511.142.743.27.1.062.209.132.254.246.036.089-.007.187-.07.25-.119.12-.275.19-.428.253a5.812 5.812 0 0 1-1.108.283c-.83.141-1.67.19-2.51.207h-.498a19.502 19.502 0 0 1-1.834-.112 9.462 9.462 0 0 1-1.414-.256c-.24-.07-.485-.146-.694-.287-.095-.067-.2-.163-.186-.29.02-.128.134-.212.236-.276.282-.167.603-.247.918-.324.718-.16 1.453-.23 2.186-.272-.026.235-.06.469-.112.7-.03.145.11.29.256.265.1-.01.184-.093.197-.192.106-.484.152-.98.164-1.474a12.036 12.036 0 0 0-.249-2.633 10.028 10.028 0 0 0-.585-1.909c-.271-.625-.622-1.235-1.141-1.687a4.143 4.143 0 0 0-.12 1.924c.119.706.465 1.385 1.02 1.847a4.181 4.181 0 0 1-1.18-.495c-.452-.283-.833-.7-1.011-1.209a2.152 2.152 0 0 1 .001-1.42c-.346.38-.623.831-.755 1.33-.144.51-.126 1.052-.007 1.564a3.802 3.802 0 0 1-.376-.568c-.262-.484-.397-1.047-.318-1.597.086-.66.467-1.262.992-1.664A2.686 2.686 0 0 0 6.01 13.29c-.013-.407.048-.82.211-1.195a2.22 2.22 0 0 1 1.207-1.174 2.524 2.524 0 0 1 1.5-.123c.044-.424.25-.822.548-1.124a2.363 2.363 0 0 1 1.637-.7Z"/>
</svg>
