<svg xmlns="http://www.w3.org/2000/svg" xml:space="preserve" fill="none" viewBox="0 0 24 24">
  <path fill="#000" d="M8.46 1.631c-.443.002-.826.263-.892.636L7.012 5.42c-.076.43.296.864.821.957.525.093 1.023-.188 1.1-.619l.555-3.15c.076-.432-.296-.866-.821-.958a1.158 1.158 0 0 0-.207-.018zm7.5.012c-.443.002-.826.262-.892.636l-.556 3.151c-.076.43.296.865.821.957.525.093 1.023-.188 1.1-.618l.555-3.152c.076-.43-.296-.864-.821-.957a1.158 1.158 0 0 0-.207-.017zM11.54 3.5c-.55 0-1 .45-1 1v1.04c0 .79-.41 1.49-1.03 1.88-.09.06-.19.11-.29.16-.09.05-.19.09-.3.12-.12.04-.25.07-.39.08-.16.02-.32.02-.48 0-.14-.01-.27-.04-.39-.08-.1-.03-.2-.07-.3-.12-.1-.05-.2-.1-.29-.16-.63-.44-1.03-1.2-1.03-2.01v-.1c0-.77-.82-1.23-1.47-.9-.01.01-.02.01-.03.02-.04.02-.07.04-.11.07-.03.03-.07.05-.1.08-.28.22-.53.47-.74.74-.11.12-.2.25-.28.38a3.498 3.498 0 0 0-.27.46c-.02.02-.03.03-.03.05-.06.12-.12.24-.16.37-.03.05-.04.09-.06.14-.06.15-.1.3-.14.45-.04.14-.07.29-.09.44a5.902 5.902 0 0 0-.06.76v8.76A4.87 4.87 0 0 0 7.37 22h9.26a4.87 4.87 0 0 0 4.87-4.87V8.37c0-1.59-.76-2.98-1.93-3.87-.66-.49-1.61-.02-1.61.81v.1c0 1.17-.84 2.25-2.01 2.37-1.35.14-2.49-.92-2.49-2.24V4.5c0-.55-.45-1-1-1h-.92zm-.365 5.89h.09c.606.017 1.175.316 1.587.75a2.504 2.504 0 0 0-1.266-.04c-.378.086-.742.287-.963.613.39-.099.815-.042 1.167.15.388.207.678.565.847.966.225.537.257 1.136.193 1.71-.26-.559-.633-1.094-1.18-1.4a2.017 2.017 0 0 0-1.493-.187c.472.51.83 1.112 1.12 1.74.375.823.638 1.693.824 2.576.215 1.033.324 2.088.327 3.143-.002.103.077.2.18.214a.217.217 0 0 0 .248-.213c.054-1.237.268-2.472.676-3.643.231-.653.517-1.29.901-1.869a4.22 4.22 0 0 1 .489-.612c-.24-.09-.506-.032-.737.059-.471.191-.83.594-1.043 1.048-.04-.429-.008-.88.192-1.27.151-.3.417-.55.742-.65.199-.064.413-.065.615-.016-.159-.239-.427-.383-.703-.44a1.749 1.749 0 0 0-.83.026c.248-.248.557-.443.903-.52a1.565 1.565 0 0 1 1.206.208c.332.211.568.563.64.95.606-.12 1.246.246 1.492.804.127.267.168.568.157.861a1.723 1.723 0 0 0-1.097-.953c.335.263.574.654.624 1.08.062.5-.148.996-.463 1.375.098-.384.095-.799-.044-1.173a2.16 2.16 0 0 0-.42-.686c.116.353.091.755-.09 1.083a1.641 1.641 0 0 1-.638.627 2.71 2.71 0 0 1-.698.27c.282-.231.487-.553.58-.906.122-.464.082-.96-.054-1.416-.781 1.048-1.268 2.301-1.462 3.59a9.57 9.57 0 0 0-.108 1.547c.483.047.966.115 1.437.231.237.062.475.132.69.251.093.057.194.122.235.228.034.082-.006.173-.065.232-.11.111-.254.176-.397.234-.33.129-.68.202-1.028.263-.769.131-1.55.176-2.328.192h-.462a18.092 18.092 0 0 1-1.703-.103 8.78 8.78 0 0 1-1.311-.238c-.223-.065-.45-.136-.644-.266-.088-.063-.185-.152-.172-.27.019-.118.124-.196.219-.256.26-.154.559-.229.851-.3.666-.149 1.348-.214 2.028-.253a6.031 6.031 0 0 1-.103.65c-.029.134.102.268.237.246a.21.21 0 0 0 .183-.178c.098-.45.14-.91.152-1.369.016-.82-.067-1.64-.23-2.442a9.304 9.304 0 0 0-.544-1.771c-.252-.58-.577-1.147-1.059-1.566a3.844 3.844 0 0 0-.11 1.785c.11.655.43 1.285.945 1.714a3.88 3.88 0 0 1-1.094-.459c-.42-.263-.773-.65-.938-1.122a1.997 1.997 0 0 1 0-1.317c-.32.352-.578.77-.7 1.234-.134.472-.117.976-.007 1.451a3.528 3.528 0 0 1-.348-.528c-.243-.448-.369-.971-.296-1.48.08-.613.434-1.172.92-1.545-.7.188-1.304.7-1.603 1.36a2.573 2.573 0 0 1 .196-1.109 2.06 2.06 0 0 1 1.119-1.089c.438-.18.93-.217 1.392-.114.04-.394.233-.763.509-1.043a2.192 2.192 0 0 1 1.518-.65z"/>
</svg>
