<svg xmlns="http://www.w3.org/2000/svg" xml:space="preserve" fill="none" viewBox="0 0 24 24">
  <path fill="#000" d="M8.25.95a.982.982 0 0 0-.975.975v3.9c0 .533.442.975.975.975a.982.982 0 0 0 .975-.975v-3.9A.982.982 0 0 0 8.25.95zm7.5 0a.982.982 0 0 0-.975.975v3.9c0 .533.442.975.975.975a.982.982 0 0 0 .975-.975v-3.9A.982.982 0 0 0 15.75.95zm-4.21 2.925c-.55 0-1 .45-1 1v1.04c0 .79-.41 1.49-1.03 1.88-.09.06-.19.11-.29.16-.09.05-.19.09-.3.12-.12.04-.25.07-.39.08-.16.02-.32.02-.48 0-.14-.01-.27-.04-.39-.08-.1-.03-.2-.07-.3-.12-.1-.05-.2-.1-.29-.16-.63-.44-1.03-1.2-1.03-2.01v-.1c0-.77-.82-1.23-1.47-.9-.01.01-.02.01-.03.02-.04.02-.07.04-.11.07-.03.03-.07.05-.1.08-.28.22-.53.47-.74.74-.11.12-.2.25-.28.38a3.498 3.498 0 0 0-.27.46c-.02.02-.03.03-.03.05-.06.12-.12.24-.16.37-.03.05-.04.09-.06.14-.06.15-.1.3-.14.45-.04.14-.07.29-.09.44a5.902 5.902 0 0 0-.06.76v8.76a4.87 4.87 0 0 0 4.87 4.87h9.26a4.87 4.87 0 0 0 4.87-4.87v-8.76c0-1.59-.76-2.98-1.93-3.87-.66-.49-1.61-.02-1.61.81v.1c0 1.17-.84 2.25-2.01 2.37-1.35.14-2.49-.92-2.49-2.24v-1.04c0-.55-.45-1-1-1h-.92zm.451 5.597h.01a.7.7 0 0 1 .712.69v.692a.7.7 0 0 1-.712.69.7.7 0 0 1-.711-.69l-.002-.693a.7.7 0 0 1 .703-.69zm3.536 1.415a.72.72 0 0 1 .504.203c.278.27.28.707 0 .978l-.504.489a.726.726 0 0 1-1.007-.001.675.675 0 0 1 0-.976l.504-.49a.72.72 0 0 1 .503-.203zm-7.053 0a.72.72 0 0 1 .505.204l.503.488a.674.674 0 0 1 0 .976.725.725 0 0 1-1.007 0l-.506-.488a.674.674 0 0 1 .002-.976.724.724 0 0 1 .503-.203zm3.527 1.35A2.85 2.765 0 0 1 14.85 15 2.85 2.765 0 0 1 12 17.765a2.85 2.765 0 0 1-2.85-2.764A2.85 2.765 0 0 1 12 12.236zm-4.988 2.071h.712c.394 0 .713.31.713.691a.702.702 0 0 1-.713.691h-.712A.702.702 0 0 1 6.3 15c0-.383.319-.692.713-.692zm9.976 0A.7.7 0 0 1 17.7 15a.7.7 0 0 1-.713.691h-.712a.7.7 0 0 1-.711-.69.7.7 0 0 1 .71-.69l.715-.002zM8.978 17.24c.182 0 .365.068.504.203a.677.677 0 0 1 0 .977l-.505.49a.728.728 0 0 1-1.008 0 .676.676 0 0 1 0-.978l.505-.49a.722.722 0 0 1 .504-.202zm6.045 0a.72.72 0 0 1 .504.203l.504.488a.676.676 0 0 1 0 .978.727.727 0 0 1-1.007 0l-.504-.49a.677.677 0 0 1 0-.976.721.721 0 0 1 .503-.203zm-3.022 1.215c.393 0 .712.31.712.691v.691a.702.702 0 0 1-.712.691.702.702 0 0 1-.713-.69v-.692c0-.382.319-.691.713-.691z"/>
</svg>
